<svg xmlns="http://www.w3.org/2000/svg" xmlns:xlink="http://www.w3.org/1999/xlink" width="500" zoomAndPan="magnify" viewBox="0 0 375 374.999991" height="500" preserveAspectRatio="xMidYMid meet" version="1.0"><defs><g/></defs><g fill="#543314" fill-opacity="1"><g transform="translate(131.511016, 193.832514)"><g><path d="M 6.296875 0 L 6.296875 -1.609375 C 8.191406 -2.179688 9.488281 -3.414062 10.1875 -5.3125 C 10.894531 -7.207031 11.25 -10.664062 11.25 -15.6875 L 11.25 -70.8125 C 11.25 -75.914062 10.894531 -79.394531 10.1875 -81.25 C 9.488281 -83.101562 8.191406 -84.316406 6.296875 -84.890625 L 6.296875 -86.5 L 64.5 -86.5 L 65.625 -73.53125 L 64.265625 -73.15625 C 62.203125 -77.28125 59.644531 -80.207031 56.59375 -81.9375 C 53.550781 -83.664062 49.101562 -84.53125 43.25 -84.53125 L 21.375 -84.53125 L 21.375 -48.3125 L 36.078125 -48.3125 C 40.773438 -48.3125 44.421875 -48.617188 47.015625 -49.234375 C 49.617188 -49.859375 51.515625 -50.785156 52.703125 -52.015625 C 53.898438 -53.253906 54.742188 -54.78125 55.234375 -56.59375 L 56.71875 -56.59375 L 56.71875 -37.8125 L 55.234375 -37.8125 C 54.742188 -39.707031 53.898438 -41.269531 52.703125 -42.5 C 51.515625 -43.738281 49.617188 -44.6875 47.015625 -45.34375 C 44.421875 -46.007812 40.773438 -46.34375 36.078125 -46.34375 L 21.375 -46.34375 L 21.375 -15.6875 C 21.375 -10.664062 21.722656 -7.207031 22.421875 -5.3125 C 23.128906 -3.414062 24.429688 -2.179688 26.328125 -1.609375 L 26.328125 0 Z M 6.296875 0 "/></g></g></g><g fill="#543314" fill-opacity="1"><g transform="translate(151.669258, 210.719137)"><g><path d="M 53.015625 1.234375 C 43.535156 1.234375 35.316406 -0.453125 28.359375 -3.828125 C 21.398438 -7.203125 16.003906 -12.082031 12.171875 -18.46875 C 8.335938 -24.851562 6.421875 -32.535156 6.421875 -41.515625 C 6.421875 -48.109375 7.613281 -54.1875 10 -59.75 C 12.394531 -65.3125 15.796875 -70.171875 20.203125 -74.328125 C 24.609375 -78.492188 29.835938 -81.707031 35.890625 -83.96875 C 41.953125 -86.238281 48.609375 -87.375 55.859375 -87.375 C 59.398438 -87.375 63.003906 -87.0625 66.671875 -86.4375 C 70.335938 -85.820312 73.691406 -85.0625 76.734375 -84.15625 C 79.785156 -83.25 82.09375 -82.257812 83.65625 -81.1875 L 84.15625 -66.484375 L 82.921875 -66.234375 C 80.535156 -71.835938 76.5625 -76.367188 71 -79.828125 C 65.4375 -83.285156 58.988281 -85.015625 51.65625 -85.015625 C 45.144531 -85.015625 39.253906 -83.570312 33.984375 -80.6875 C 28.710938 -77.8125 24.53125 -73.53125 21.4375 -67.84375 C 18.351562 -62.15625 16.8125 -55.113281 16.8125 -46.71875 C 16.8125 -40.945312 17.65625 -35.34375 19.34375 -29.90625 C 21.03125 -24.46875 23.5625 -19.585938 26.9375 -15.265625 C 30.3125 -10.941406 34.472656 -7.519531 39.421875 -5 C 44.367188 -2.488281 50.050781 -1.234375 56.46875 -1.234375 C 63.144531 -1.234375 68.972656 -2.960938 73.953125 -6.421875 C 78.941406 -9.878906 82.628906 -14.945312 85.015625 -21.625 L 86.375 -21.5 L 84.40625 -5.4375 C 81.519531 -3.875 77.296875 -2.367188 71.734375 -0.921875 C 66.171875 0.515625 59.929688 1.234375 53.015625 1.234375 Z M 53.015625 1.234375 "/></g></g></g><g fill="#543314" fill-opacity="1"><g transform="translate(81.94747, 252.094741)"><g><path d="M 38.578125 -27.625 C 38.703125 -27.53125 38.71875 -27.382812 38.625 -27.1875 C 38.53125 -26.988281 38.382812 -26.789062 38.1875 -26.59375 C 38 -26.40625 37.765625 -26.234375 37.484375 -26.078125 C 37.210938 -25.929688 36.972656 -25.859375 36.765625 -25.859375 C 36.046875 -25.921875 35.316406 -25.992188 34.578125 -26.078125 C 33.835938 -26.171875 33.101562 -26.28125 32.375 -26.40625 C 31.738281 -26.21875 31.1875 -25.945312 30.71875 -25.59375 C 30.25 -25.25 29.828125 -24.789062 29.453125 -24.21875 C 29.078125 -23.644531 28.726562 -22.925781 28.40625 -22.0625 C 28.09375 -21.207031 27.769531 -20.160156 27.4375 -18.921875 C 27.226562 -18.234375 27.03125 -17.554688 26.84375 -16.890625 C 26.664062 -16.222656 26.457031 -15.585938 26.21875 -14.984375 L 30.875 -14.984375 C 31.03125 -14.921875 31.082031 -14.851562 31.03125 -14.78125 C 30.988281 -14.707031 30.847656 -14.640625 30.609375 -14.578125 C 29.828125 -14.546875 29.054688 -14.519531 28.296875 -14.5 C 27.546875 -14.488281 26.789062 -14.46875 26.03125 -14.4375 C 24.21875 -9.457031 21.914062 -5.804688 19.125 -3.484375 C 16.332031 -1.160156 12.988281 0 9.09375 0 C 6.925781 0 5.242188 -0.507812 4.046875 -1.53125 C 2.859375 -2.5625 2.265625 -3.984375 2.265625 -5.796875 C 2.265625 -6.847656 2.570312 -7.828125 3.1875 -8.734375 C 3.8125 -9.640625 4.695312 -10.351562 5.84375 -10.875 C 5.957031 -10.875 6.046875 -10.816406 6.109375 -10.703125 C 6.171875 -10.597656 6.171875 -10.503906 6.109375 -10.421875 C 5.566406 -9.992188 5.164062 -9.53125 4.90625 -9.03125 C 4.65625 -8.53125 4.53125 -7.84375 4.53125 -6.96875 C 4.53125 -6.1875 4.664062 -5.46875 4.9375 -4.8125 C 5.207031 -4.164062 5.628906 -3.59375 6.203125 -3.09375 C 6.773438 -2.601562 7.515625 -2.222656 8.421875 -1.953125 C 9.328125 -1.679688 10.414062 -1.546875 11.6875 -1.546875 C 13.132812 -1.546875 14.40625 -1.722656 15.5 -2.078125 C 16.601562 -2.441406 17.609375 -3.097656 18.515625 -4.046875 C 19.421875 -5.003906 20.265625 -6.3125 21.046875 -7.96875 C 21.835938 -9.625 22.640625 -11.753906 23.453125 -14.359375 C 21.910156 -14.296875 20.414062 -14.203125 18.96875 -14.078125 C 17.519531 -13.960938 16.101562 -13.796875 14.71875 -13.578125 C 14.625 -13.609375 14.632812 -13.675781 14.75 -13.78125 C 14.875 -13.894531 15.050781 -14.007812 15.28125 -14.125 C 15.507812 -14.25 15.757812 -14.363281 16.03125 -14.46875 C 16.300781 -14.570312 16.507812 -14.640625 16.65625 -14.671875 C 18.925781 -14.796875 21.253906 -14.882812 23.640625 -14.9375 C 23.785156 -15.425781 23.929688 -15.925781 24.078125 -16.4375 C 24.234375 -16.945312 24.390625 -17.472656 24.546875 -18.015625 C 25.203125 -20.460938 26.046875 -22.34375 27.078125 -23.65625 C 28.109375 -24.96875 29.515625 -25.941406 31.296875 -26.578125 C 29.660156 -26.816406 28.09375 -27.035156 26.59375 -27.234375 C 25.101562 -27.429688 23.679688 -27.53125 22.328125 -27.53125 C 20.054688 -27.53125 18.179688 -27.097656 16.703125 -26.234375 C 15.222656 -25.378906 14.140625 -23.910156 13.453125 -21.828125 C 13.359375 -21.734375 13.265625 -21.71875 13.171875 -21.78125 C 13.085938 -21.84375 13.046875 -21.945312 13.046875 -22.09375 C 13.703125 -24.238281 15.003906 -25.957031 16.953125 -27.25 C 18.898438 -28.550781 21.3125 -29.203125 24.1875 -29.203125 C 25.300781 -29.203125 26.421875 -29.140625 27.546875 -29.015625 C 28.679688 -28.898438 29.835938 -28.757812 31.015625 -28.59375 C 32.191406 -28.425781 33.40625 -28.25 34.65625 -28.0625 C 35.914062 -27.882812 37.222656 -27.738281 38.578125 -27.625 Z M 38.578125 -27.625 "/></g></g></g><g fill="#543314" fill-opacity="1"><g transform="translate(111.151928, 252.094741)"><g><path d="M 13.765625 -2.859375 C 13.828125 -2.910156 13.898438 -2.90625 13.984375 -2.84375 C 14.078125 -2.789062 14.109375 -2.703125 14.078125 -2.578125 C 13.535156 -1.796875 12.929688 -1.171875 12.265625 -0.703125 C 11.609375 -0.234375 10.976562 0 10.375 0 C 9.675781 0 9.226562 -0.488281 9.03125 -1.46875 C 8.832031 -2.445312 8.929688 -3.617188 9.328125 -4.984375 C 8.515625 -3.679688 7.628906 -2.566406 6.671875 -1.640625 C 5.722656 -0.722656 4.722656 -0.175781 3.671875 0 C 2.941406 0 2.378906 -0.332031 1.984375 -1 C 1.597656 -1.664062 1.40625 -2.4375 1.40625 -3.3125 C 1.40625 -4.300781 1.644531 -5.285156 2.125 -6.265625 C 2.613281 -7.253906 3.253906 -8.140625 4.046875 -8.921875 C 4.847656 -9.703125 5.738281 -10.34375 6.71875 -10.84375 C 7.707031 -11.34375 8.695312 -11.59375 9.6875 -11.59375 C 10.75 -11.59375 11.582031 -11.335938 12.1875 -10.828125 C 12.488281 -11.035156 12.867188 -11.210938 13.328125 -11.359375 C 13.796875 -11.515625 14.210938 -11.59375 14.578125 -11.59375 C 14.703125 -11.59375 14.765625 -11.515625 14.765625 -11.359375 C 14.066406 -10.515625 13.46875 -9.585938 12.96875 -8.578125 C 12.46875 -7.566406 12.082031 -6.597656 11.8125 -5.671875 C 11.539062 -4.753906 11.375 -3.929688 11.3125 -3.203125 C 11.257812 -2.484375 11.320312 -1.988281 11.5 -1.71875 C 11.65625 -1.539062 11.910156 -1.488281 12.265625 -1.5625 C 12.628906 -1.632812 13.128906 -2.066406 13.765625 -2.859375 Z M 5.078125 -1.671875 C 5.429688 -1.671875 5.875 -1.894531 6.40625 -2.34375 C 6.9375 -2.800781 7.488281 -3.40625 8.0625 -4.15625 C 8.632812 -4.914062 9.195312 -5.765625 9.75 -6.703125 C 10.3125 -7.640625 10.804688 -8.585938 11.234375 -9.546875 C 11.109375 -9.941406 10.828125 -10.257812 10.390625 -10.5 C 9.953125 -10.75 9.445312 -10.875 8.875 -10.875 C 8.175781 -10.875 7.523438 -10.695312 6.921875 -10.34375 C 6.316406 -10 5.796875 -9.515625 5.359375 -8.890625 C 4.921875 -8.273438 4.570312 -7.535156 4.3125 -6.671875 C 4.0625 -5.816406 3.9375 -4.875 3.9375 -3.84375 C 3.9375 -3.1875 4.050781 -2.660156 4.28125 -2.265625 C 4.507812 -1.867188 4.773438 -1.671875 5.078125 -1.671875 Z M 5.078125 -1.671875 "/></g></g></g><g fill="#543314" fill-opacity="1"><g transform="translate(125.957907, 252.094741)"><g><path d="M 5.390625 -0.640625 C 4.960938 -0.484375 4.46875 -0.335938 3.90625 -0.203125 C 3.351562 -0.0664062 2.804688 0 2.265625 0 C 1.898438 0 1.796875 -0.195312 1.953125 -0.59375 C 2.460938 -1.851562 2.894531 -3.226562 3.25 -4.71875 C 3.613281 -6.21875 3.875 -7.554688 4.03125 -8.734375 C 4.125 -9.796875 3.957031 -10.328125 3.53125 -10.328125 C 3.082031 -10.328125 2.523438 -9.976562 1.859375 -9.28125 C 1.703125 -9.21875 1.578125 -9.234375 1.484375 -9.328125 C 1.398438 -9.421875 1.390625 -9.523438 1.453125 -9.640625 C 1.992188 -10.179688 2.601562 -10.640625 3.28125 -11.015625 C 3.957031 -11.398438 4.644531 -11.59375 5.34375 -11.59375 C 5.789062 -11.59375 6.085938 -11.457031 6.234375 -11.1875 C 6.390625 -10.914062 6.46875 -10.566406 6.46875 -10.140625 C 6.46875 -9.566406 6.40625 -8.882812 6.28125 -8.09375 C 6.164062 -7.3125 6.007812 -6.488281 5.8125 -5.625 C 5.625 -4.769531 5.414062 -3.925781 5.1875 -3.09375 C 4.957031 -2.269531 4.738281 -1.523438 4.53125 -0.859375 C 5.375 -1.066406 6.207031 -1.457031 7.03125 -2.03125 C 7.863281 -2.601562 8.613281 -3.265625 9.28125 -4.015625 C 9.945312 -4.773438 10.484375 -5.597656 10.890625 -6.484375 C 11.296875 -7.378906 11.5 -8.28125 11.5 -9.1875 C 11.5 -9.976562 11.257812 -10.375 10.78125 -10.375 C 10.507812 -10.375 10.289062 -10.316406 10.125 -10.203125 C 9.957031 -10.097656 9.78125 -9.910156 9.59375 -9.640625 C 9.507812 -9.578125 9.4375 -9.59375 9.375 -9.6875 C 9.3125 -9.78125 9.296875 -9.875 9.328125 -9.96875 C 9.535156 -10.289062 9.90625 -10.640625 10.4375 -11.015625 C 10.96875 -11.398438 11.519531 -11.59375 12.09375 -11.59375 C 12.570312 -11.59375 12.9375 -11.414062 13.1875 -11.0625 C 13.445312 -10.71875 13.578125 -10.289062 13.578125 -9.78125 C 13.578125 -8.90625 13.347656 -8.019531 12.890625 -7.125 C 12.441406 -6.238281 11.84375 -5.382812 11.09375 -4.5625 C 10.34375 -3.75 9.46875 -3.003906 8.46875 -2.328125 C 7.46875 -1.648438 6.441406 -1.085938 5.390625 -0.640625 Z M 5.390625 -0.640625 "/></g></g></g><g fill="#543314" fill-opacity="1"><g transform="translate(139.76776, 252.094741)"><g><path d="M 8.109375 -11.59375 C 9.160156 -11.59375 9.941406 -11.273438 10.453125 -10.640625 C 10.972656 -10.003906 11.234375 -9.265625 11.234375 -8.421875 C 11.234375 -7.242188 11 -6.148438 10.53125 -5.140625 C 10.0625 -4.128906 9.484375 -3.238281 8.796875 -2.46875 C 8.117188 -1.695312 7.390625 -1.09375 6.609375 -0.65625 C 5.828125 -0.21875 5.117188 0 4.484375 0 C 3.453125 0 2.671875 -0.304688 2.140625 -0.921875 C 1.617188 -1.546875 1.359375 -2.34375 1.359375 -3.3125 C 1.359375 -4.1875 1.546875 -5.101562 1.921875 -6.0625 C 2.296875 -7.03125 2.789062 -7.921875 3.40625 -8.734375 C 4.03125 -9.554688 4.75 -10.238281 5.5625 -10.78125 C 6.382812 -11.320312 7.234375 -11.59375 8.109375 -11.59375 Z M 5.609375 -1.40625 C 6.546875 -1.40625 7.335938 -1.894531 7.984375 -2.875 C 8.640625 -3.851562 8.96875 -5.203125 8.96875 -6.921875 C 8.96875 -7.828125 8.785156 -8.582031 8.421875 -9.1875 C 8.054688 -9.789062 7.53125 -10.09375 6.84375 -10.09375 C 5.875 -10.09375 5.085938 -9.625 4.484375 -8.6875 C 3.878906 -7.757812 3.578125 -6.390625 3.578125 -4.578125 C 3.578125 -3.515625 3.765625 -2.71875 4.140625 -2.1875 C 4.515625 -1.664062 5.003906 -1.40625 5.609375 -1.40625 Z M 5.609375 -1.40625 "/></g></g></g><g fill="#543314" fill-opacity="1"><g transform="translate(151.449539, 252.094741)"><g><path d="M 3.34375 0 C 2.082031 0 1.453125 -0.691406 1.453125 -2.078125 C 1.453125 -2.566406 1.503906 -3.125 1.609375 -3.75 C 1.710938 -4.382812 1.875 -5.039062 2.09375 -5.71875 C 2.320312 -6.40625 2.585938 -7.09375 2.890625 -7.78125 C 3.191406 -8.476562 3.554688 -9.144531 3.984375 -9.78125 C 3.648438 -9.570312 3.332031 -9.351562 3.03125 -9.125 C 2.726562 -8.894531 2.457031 -8.660156 2.21875 -8.421875 C 2.125 -8.359375 2.039062 -8.378906 1.96875 -8.484375 C 1.894531 -8.597656 1.890625 -8.695312 1.953125 -8.78125 C 2.460938 -9.320312 3.191406 -9.878906 4.140625 -10.453125 C 5.085938 -11.023438 6 -11.476562 6.875 -11.8125 C 7.03125 -11.8125 7.144531 -11.773438 7.21875 -11.703125 C 7.289062 -11.628906 7.300781 -11.53125 7.25 -11.40625 C 6.28125 -10.144531 5.5 -8.773438 4.90625 -7.296875 C 4.320312 -5.816406 4.03125 -4.378906 4.03125 -2.984375 C 4.03125 -2.109375 4.300781 -1.671875 4.84375 -1.671875 C 5.238281 -1.671875 5.722656 -1.9375 6.296875 -2.46875 C 6.867188 -3 7.472656 -3.691406 8.109375 -4.546875 C 8.742188 -5.410156 9.382812 -6.382812 10.03125 -7.46875 C 10.675781 -8.550781 11.269531 -9.65625 11.8125 -10.78125 C 11.90625 -10.957031 12.171875 -11.132812 12.609375 -11.3125 C 13.046875 -11.5 13.492188 -11.59375 13.953125 -11.59375 C 14.398438 -11.59375 14.535156 -11.472656 14.359375 -11.234375 C 13.929688 -10.441406 13.554688 -9.707031 13.234375 -9.03125 C 12.921875 -8.351562 12.660156 -7.679688 12.453125 -7.015625 C 12.242188 -6.347656 12.082031 -5.675781 11.96875 -5 C 11.863281 -4.320312 11.8125 -3.578125 11.8125 -2.765625 C 11.8125 -1.796875 12.070312 -1.3125 12.59375 -1.3125 C 13.101562 -1.3125 13.675781 -1.765625 14.3125 -2.671875 C 14.394531 -2.734375 14.484375 -2.734375 14.578125 -2.671875 C 14.671875 -2.609375 14.703125 -2.519531 14.671875 -2.40625 C 14.160156 -1.613281 13.59375 -1.015625 12.96875 -0.609375 C 12.351562 -0.203125 11.789062 0 11.28125 0 C 10.007812 0 9.375 -0.738281 9.375 -2.21875 C 9.375 -3.757812 9.644531 -5.285156 10.1875 -6.796875 C 9.039062 -4.710938 7.832031 -3.054688 6.5625 -1.828125 C 5.289062 -0.609375 4.21875 0 3.34375 0 Z M 3.34375 0 "/></g></g></g><g fill="#543314" fill-opacity="1"><g transform="translate(166.481912, 252.094741)"><g><path d="M 6.15625 -10.28125 C 6.15625 -9.820312 6.109375 -9.304688 6.015625 -8.734375 C 5.929688 -8.160156 5.8125 -7.570312 5.65625 -6.96875 C 6.257812 -8.414062 6.921875 -9.546875 7.640625 -10.359375 C 8.367188 -11.179688 9.15625 -11.59375 10 -11.59375 C 10.457031 -11.59375 10.804688 -11.484375 11.046875 -11.265625 C 11.285156 -11.054688 11.40625 -10.785156 11.40625 -10.453125 C 11.40625 -10.148438 11.289062 -9.757812 11.0625 -9.28125 C 10.84375 -8.800781 10.65625 -8.46875 10.5 -8.28125 C 10.445312 -8.25 10.390625 -8.253906 10.328125 -8.296875 C 10.265625 -8.347656 10.234375 -8.40625 10.234375 -8.46875 C 10.234375 -8.675781 10.148438 -8.851562 9.984375 -9 C 9.816406 -9.15625 9.566406 -9.234375 9.234375 -9.234375 C 8.179688 -9.234375 7.222656 -8.515625 6.359375 -7.078125 C 5.503906 -5.648438 4.710938 -3.59375 3.984375 -0.90625 C 3.953125 -0.75 3.84375 -0.617188 3.65625 -0.515625 C 3.476562 -0.410156 3.273438 -0.320312 3.046875 -0.25 C 2.828125 -0.175781 2.597656 -0.113281 2.359375 -0.0625 C 2.117188 -0.0195312 1.90625 0 1.71875 0 C 1.382812 0 1.296875 -0.179688 1.453125 -0.546875 C 1.722656 -1.179688 1.984375 -1.867188 2.234375 -2.609375 C 2.492188 -3.347656 2.726562 -4.09375 2.9375 -4.84375 C 3.15625 -5.601562 3.335938 -6.335938 3.484375 -7.046875 C 3.640625 -7.753906 3.757812 -8.410156 3.84375 -9.015625 C 3.90625 -9.460938 3.925781 -9.804688 3.90625 -10.046875 C 3.894531 -10.296875 3.769531 -10.421875 3.53125 -10.421875 C 3.226562 -10.421875 2.914062 -10.289062 2.59375 -10.03125 C 2.28125 -9.769531 1.988281 -9.445312 1.71875 -9.0625 C 1.601562 -8.96875 1.488281 -8.957031 1.375 -9.03125 C 1.269531 -9.101562 1.25 -9.203125 1.3125 -9.328125 C 1.488281 -9.566406 1.707031 -9.8125 1.96875 -10.0625 C 2.226562 -10.320312 2.515625 -10.566406 2.828125 -10.796875 C 3.148438 -11.023438 3.484375 -11.210938 3.828125 -11.359375 C 4.171875 -11.515625 4.523438 -11.59375 4.890625 -11.59375 C 5.367188 -11.59375 5.695312 -11.476562 5.875 -11.25 C 6.0625 -11.019531 6.15625 -10.695312 6.15625 -10.28125 Z M 6.15625 -10.28125 "/></g></g></g><g fill="#543314" fill-opacity="1"><g transform="translate(176.080903, 252.094741)"><g/></g></g><g fill="#543314" fill-opacity="1"><g transform="translate(182.872643, 252.094741)"><g><path d="M 21.96875 -29.15625 C 23.050781 -29.15625 24.046875 -29.101562 24.953125 -29 C 25.859375 -28.894531 26.640625 -28.734375 27.296875 -28.515625 C 27.960938 -28.304688 28.484375 -28.054688 28.859375 -27.765625 C 29.242188 -27.484375 29.4375 -27.164062 29.4375 -26.8125 C 29.4375 -26.5625 29.375 -26.234375 29.25 -25.828125 C 29.132812 -25.421875 28.992188 -25 28.828125 -24.5625 C 28.660156 -24.125 28.46875 -23.691406 28.25 -23.265625 C 28.039062 -22.847656 27.847656 -22.519531 27.671875 -22.28125 C 27.578125 -22.21875 27.460938 -22.222656 27.328125 -22.296875 C 27.191406 -22.378906 27.15625 -22.492188 27.21875 -22.640625 C 27.851562 -23.753906 27.988281 -24.613281 27.625 -25.21875 C 27.226562 -25.851562 26.394531 -26.457031 25.125 -27.03125 C 23.863281 -27.601562 22.296875 -27.890625 20.421875 -27.890625 C 18.066406 -27.890625 16.003906 -27.523438 14.234375 -26.796875 C 12.472656 -26.078125 11.003906 -25.050781 9.828125 -23.71875 C 8.648438 -22.394531 7.765625 -20.78125 7.171875 -18.875 C 6.585938 -16.976562 6.296875 -14.851562 6.296875 -12.5 C 6.296875 -10.8125 6.519531 -9.25 6.96875 -7.8125 C 7.425781 -6.375 8.09375 -5.132812 8.96875 -4.09375 C 9.84375 -3.050781 10.910156 -2.234375 12.171875 -1.640625 C 13.441406 -1.054688 14.894531 -0.765625 16.53125 -0.765625 C 18.695312 -0.765625 20.503906 -1.4375 21.953125 -2.78125 C 23.410156 -4.125 24.441406 -5.914062 25.046875 -8.15625 C 25.097656 -8.300781 25.195312 -8.359375 25.34375 -8.328125 C 25.5 -8.296875 25.578125 -8.207031 25.578125 -8.0625 C 25.460938 -7.425781 25.289062 -6.722656 25.0625 -5.953125 C 24.832031 -5.179688 24.582031 -4.457031 24.3125 -3.78125 C 24.039062 -3.101562 23.769531 -2.515625 23.5 -2.015625 C 23.226562 -1.515625 23.003906 -1.234375 22.828125 -1.171875 C 21.859375 -0.816406 20.773438 -0.53125 19.578125 -0.3125 C 18.390625 -0.101562 17.128906 0 15.796875 0 C 11.578125 0 8.410156 -0.976562 6.296875 -2.9375 C 4.179688 -4.90625 3.125 -7.625 3.125 -11.09375 C 3.125 -13.65625 3.582031 -16.046875 4.5 -18.265625 C 5.425781 -20.484375 6.722656 -22.394531 8.390625 -24 C 10.066406 -25.601562 12.050781 -26.863281 14.34375 -27.78125 C 16.644531 -28.695312 19.1875 -29.15625 21.96875 -29.15625 Z M 21.96875 -29.15625 "/></g></g></g><g fill="#543314" fill-opacity="1"><g transform="translate(208.998188, 252.094741)"><g><path d="M 1.09375 -0.40625 C 2.445312 -5.601562 4.003906 -10.28125 5.765625 -14.4375 C 7.535156 -18.601562 9.398438 -22.148438 11.359375 -25.078125 C 13.328125 -28.015625 15.3125 -30.273438 17.3125 -31.859375 C 19.320312 -33.441406 21.234375 -34.234375 23.046875 -34.234375 C 23.804688 -34.234375 24.40625 -34.054688 24.84375 -33.703125 C 25.28125 -33.359375 25.578125 -32.9375 25.734375 -32.4375 C 25.898438 -31.945312 25.921875 -31.410156 25.796875 -30.828125 C 25.679688 -30.253906 25.457031 -29.742188 25.125 -29.296875 C 25.039062 -29.203125 24.953125 -29.171875 24.859375 -29.203125 C 24.765625 -29.234375 24.71875 -29.3125 24.71875 -29.4375 C 24.875 -30.039062 24.707031 -30.613281 24.21875 -31.15625 C 23.738281 -31.695312 22.972656 -31.96875 21.921875 -31.96875 C 20.285156 -31.96875 18.734375 -31.53125 17.265625 -30.65625 C 15.804688 -29.78125 14.378906 -28.320312 12.984375 -26.28125 C 11.597656 -24.25 10.238281 -21.546875 8.90625 -18.171875 C 7.582031 -14.804688 6.226562 -10.617188 4.84375 -5.609375 C 5.300781 -6.429688 5.820312 -7.203125 6.40625 -7.921875 C 7 -8.648438 7.640625 -9.285156 8.328125 -9.828125 C 9.023438 -10.367188 9.765625 -10.796875 10.546875 -11.109375 C 11.335938 -11.429688 12.15625 -11.59375 13 -11.59375 C 13.363281 -11.59375 13.625 -11.5 13.78125 -11.3125 C 13.945312 -11.132812 14.03125 -10.925781 14.03125 -10.6875 C 14.03125 -10.289062 13.894531 -9.851562 13.625 -9.375 C 12.988281 -8.257812 12.472656 -7.113281 12.078125 -5.9375 C 11.691406 -4.757812 11.5 -3.6875 11.5 -2.71875 C 11.5 -2.289062 11.539062 -1.941406 11.625 -1.671875 C 11.71875 -1.398438 11.890625 -1.265625 12.140625 -1.265625 C 12.441406 -1.265625 12.769531 -1.421875 13.125 -1.734375 C 13.488281 -2.054688 13.789062 -2.414062 14.03125 -2.8125 C 14.125 -2.863281 14.210938 -2.851562 14.296875 -2.78125 C 14.390625 -2.707031 14.425781 -2.625 14.40625 -2.53125 C 14.007812 -1.875 13.457031 -1.285156 12.75 -0.765625 C 12.039062 -0.253906 11.398438 0 10.828125 0 C 10.304688 0 9.878906 -0.140625 9.546875 -0.421875 C 9.222656 -0.710938 9.0625 -1.207031 9.0625 -1.90625 C 9.0625 -2.445312 9.113281 -3.023438 9.21875 -3.640625 C 9.320312 -4.265625 9.457031 -4.878906 9.625 -5.484375 C 9.789062 -6.085938 9.984375 -6.679688 10.203125 -7.265625 C 10.429688 -7.859375 10.679688 -8.394531 10.953125 -8.875 C 11.109375 -9.238281 11.1875 -9.492188 11.1875 -9.640625 C 11.1875 -9.910156 11.035156 -10.046875 10.734375 -10.046875 C 10.160156 -10.046875 9.539062 -9.828125 8.875 -9.390625 C 8.207031 -8.953125 7.554688 -8.332031 6.921875 -7.53125 C 6.296875 -6.738281 5.6875 -5.78125 5.09375 -4.65625 C 4.507812 -3.539062 4.003906 -2.304688 3.578125 -0.953125 C 3.515625 -0.742188 3.269531 -0.53125 2.84375 -0.3125 C 2.425781 -0.101562 1.960938 0 1.453125 0 C 1.148438 0 1.03125 -0.132812 1.09375 -0.40625 Z M 1.09375 -0.40625 "/></g></g></g><g fill="#543314" fill-opacity="1"><g transform="translate(223.668327, 252.094741)"><g><path d="M 7.203125 -13.546875 C 7.109375 -13.453125 7.007812 -13.445312 6.90625 -13.53125 C 6.800781 -13.625 6.71875 -13.753906 6.65625 -13.921875 C 6.59375 -14.085938 6.5625 -14.269531 6.5625 -14.46875 C 6.5625 -14.664062 6.609375 -14.835938 6.703125 -14.984375 C 7.035156 -15.410156 7.523438 -15.945312 8.171875 -16.59375 C 8.816406 -17.238281 9.488281 -17.789062 10.1875 -18.25 C 10.25 -18.28125 10.320312 -18.253906 10.40625 -18.171875 C 10.5 -18.097656 10.53125 -18.035156 10.5 -17.984375 C 9.863281 -17.398438 9.257812 -16.707031 8.6875 -15.90625 C 8.113281 -15.113281 7.617188 -14.328125 7.203125 -13.546875 Z M 2.359375 -8.421875 C 2.265625 -8.359375 2.1875 -8.378906 2.125 -8.484375 C 2.0625 -8.597656 2.046875 -8.695312 2.078125 -8.78125 C 3.203125 -9.6875 4.757812 -10.625 6.75 -11.59375 C 6.988281 -11.59375 7.109375 -11.457031 7.109375 -11.1875 C 6.710938 -10.488281 6.328125 -9.734375 5.953125 -8.921875 C 5.578125 -8.109375 5.242188 -7.300781 4.953125 -6.5 C 4.671875 -5.695312 4.4375 -4.925781 4.25 -4.1875 C 4.070312 -3.445312 3.984375 -2.835938 3.984375 -2.359375 C 3.984375 -1.753906 4.195312 -1.453125 4.625 -1.453125 C 4.945312 -1.453125 5.265625 -1.59375 5.578125 -1.875 C 5.898438 -2.164062 6.273438 -2.535156 6.703125 -2.984375 C 6.765625 -3.046875 6.835938 -3.039062 6.921875 -2.96875 C 7.015625 -2.894531 7.03125 -2.78125 6.96875 -2.625 C 6.3125 -1.84375 5.65625 -1.207031 5 -0.71875 C 4.351562 -0.238281 3.726562 0 3.125 0 C 2.070312 0 1.546875 -0.5 1.546875 -1.5 C 1.546875 -2.039062 1.625 -2.679688 1.78125 -3.421875 C 1.945312 -4.160156 2.171875 -4.914062 2.453125 -5.6875 C 2.742188 -6.457031 3.0625 -7.210938 3.40625 -7.953125 C 3.757812 -8.691406 4.117188 -9.332031 4.484375 -9.875 C 4.148438 -9.6875 3.78125 -9.457031 3.375 -9.1875 C 2.96875 -8.914062 2.628906 -8.660156 2.359375 -8.421875 Z M 2.359375 -8.421875 "/></g></g></g><g fill="#543314" fill-opacity="1"><g transform="translate(231.184513, 252.094741)"><g><path d="M 23.8125 -34.234375 C 24.382812 -34.234375 24.867188 -34.101562 25.265625 -33.84375 C 25.660156 -33.59375 25.960938 -33.253906 26.171875 -32.828125 C 26.378906 -32.398438 26.5 -31.921875 26.53125 -31.390625 C 26.5625 -30.867188 26.519531 -30.320312 26.40625 -29.75 C 26.21875 -29.625 26.078125 -29.640625 25.984375 -29.796875 C 25.898438 -30.398438 25.582031 -30.921875 25.03125 -31.359375 C 24.488281 -31.796875 23.691406 -32.015625 22.640625 -32.015625 C 20.953125 -32.015625 19.382812 -31.59375 17.9375 -30.75 C 16.488281 -29.90625 15.117188 -28.535156 13.828125 -26.640625 C 12.546875 -24.753906 11.320312 -22.3125 10.15625 -19.3125 C 9 -16.3125 7.863281 -12.648438 6.75 -8.328125 C 6.957031 -8.660156 7.25 -9.015625 7.625 -9.390625 C 8.007812 -9.773438 8.441406 -10.128906 8.921875 -10.453125 C 9.398438 -10.785156 9.90625 -11.054688 10.4375 -11.265625 C 10.96875 -11.484375 11.488281 -11.59375 12 -11.59375 C 12.632812 -11.59375 13.144531 -11.304688 13.53125 -10.734375 C 13.925781 -10.160156 14.125 -9.476562 14.125 -8.6875 C 14.125 -7.539062 13.835938 -6.445312 13.265625 -5.40625 C 12.691406 -4.363281 11.96875 -3.441406 11.09375 -2.640625 C 10.21875 -1.847656 9.265625 -1.207031 8.234375 -0.71875 C 7.210938 -0.238281 6.25 0 5.34375 0 C 4.59375 0 4.066406 -0.179688 3.765625 -0.546875 C 3.460938 -0.910156 3.3125 -1.421875 3.3125 -2.078125 C 3.3125 -2.921875 3.421875 -3.925781 3.640625 -5.09375 C 3.867188 -6.257812 4.175781 -7.5 4.5625 -8.8125 C 4.957031 -10.125 5.4375 -11.492188 6 -12.921875 C 6.5625 -14.359375 7.15625 -15.769531 7.78125 -17.15625 C 10.351562 -22.6875 12.957031 -26.914062 15.59375 -29.84375 C 18.238281 -32.769531 20.976562 -34.234375 23.8125 -34.234375 Z M 10.453125 -10.09375 C 10.003906 -10.09375 9.519531 -9.945312 9 -9.65625 C 8.488281 -9.375 8.003906 -8.9375 7.546875 -8.34375 C 7.097656 -7.757812 6.71875 -7.03125 6.40625 -6.15625 C 6.09375 -5.28125 5.890625 -4.269531 5.796875 -3.125 C 5.734375 -2.457031 5.816406 -1.988281 6.046875 -1.71875 C 6.273438 -1.445312 6.613281 -1.3125 7.0625 -1.3125 C 7.632812 -1.3125 8.207031 -1.5 8.78125 -1.875 C 9.351562 -2.25 9.875 -2.742188 10.34375 -3.359375 C 10.8125 -3.984375 11.1875 -4.671875 11.46875 -5.421875 C 11.757812 -6.179688 11.90625 -6.941406 11.90625 -7.703125 C 11.90625 -8.578125 11.769531 -9.191406 11.5 -9.546875 C 11.226562 -9.910156 10.878906 -10.09375 10.453125 -10.09375 Z M 10.453125 -10.09375 "/></g></g></g><g fill="#543314" fill-opacity="1"><g transform="translate(245.62826, 252.094741)"><g><path d="M 3.34375 0 C 2.082031 0 1.453125 -0.691406 1.453125 -2.078125 C 1.453125 -2.566406 1.503906 -3.125 1.609375 -3.75 C 1.710938 -4.382812 1.875 -5.039062 2.09375 -5.71875 C 2.320312 -6.40625 2.585938 -7.09375 2.890625 -7.78125 C 3.191406 -8.476562 3.554688 -9.144531 3.984375 -9.78125 C 3.648438 -9.570312 3.332031 -9.351562 3.03125 -9.125 C 2.726562 -8.894531 2.457031 -8.660156 2.21875 -8.421875 C 2.125 -8.359375 2.039062 -8.378906 1.96875 -8.484375 C 1.894531 -8.597656 1.890625 -8.695312 1.953125 -8.78125 C 2.460938 -9.320312 3.191406 -9.878906 4.140625 -10.453125 C 5.085938 -11.023438 6 -11.476562 6.875 -11.8125 C 7.03125 -11.8125 7.144531 -11.773438 7.21875 -11.703125 C 7.289062 -11.628906 7.300781 -11.53125 7.25 -11.40625 C 6.28125 -10.144531 5.5 -8.773438 4.90625 -7.296875 C 4.320312 -5.816406 4.03125 -4.378906 4.03125 -2.984375 C 4.03125 -2.109375 4.300781 -1.671875 4.84375 -1.671875 C 5.238281 -1.671875 5.722656 -1.9375 6.296875 -2.46875 C 6.867188 -3 7.472656 -3.691406 8.109375 -4.546875 C 8.742188 -5.410156 9.382812 -6.382812 10.03125 -7.46875 C 10.675781 -8.550781 11.269531 -9.65625 11.8125 -10.78125 C 11.90625 -10.957031 12.171875 -11.132812 12.609375 -11.3125 C 13.046875 -11.5 13.492188 -11.59375 13.953125 -11.59375 C 14.398438 -11.59375 14.535156 -11.472656 14.359375 -11.234375 C 13.929688 -10.441406 13.554688 -9.707031 13.234375 -9.03125 C 12.921875 -8.351562 12.660156 -7.679688 12.453125 -7.015625 C 12.242188 -6.347656 12.082031 -5.675781 11.96875 -5 C 11.863281 -4.320312 11.8125 -3.578125 11.8125 -2.765625 C 11.8125 -1.796875 12.070312 -1.3125 12.59375 -1.3125 C 13.101562 -1.3125 13.675781 -1.765625 14.3125 -2.671875 C 14.394531 -2.734375 14.484375 -2.734375 14.578125 -2.671875 C 14.671875 -2.609375 14.703125 -2.519531 14.671875 -2.40625 C 14.160156 -1.613281 13.59375 -1.015625 12.96875 -0.609375 C 12.351562 -0.203125 11.789062 0 11.28125 0 C 10.007812 0 9.375 -0.738281 9.375 -2.21875 C 9.375 -3.757812 9.644531 -5.285156 10.1875 -6.796875 C 9.039062 -4.710938 7.832031 -3.054688 6.5625 -1.828125 C 5.289062 -0.609375 4.21875 0 3.34375 0 Z M 3.34375 0 "/></g></g></g><g fill="#543314" fill-opacity="1"><g transform="translate(260.660632, 252.094741)"><g><path d="M 10.734375 -9.328125 C 10.734375 -7.609375 8.453125 -6.429688 3.890625 -5.796875 C 3.859375 -5.492188 3.832031 -5.191406 3.8125 -4.890625 C 3.800781 -4.585938 3.796875 -4.269531 3.796875 -3.9375 C 3.796875 -3.15625 3.976562 -2.550781 4.34375 -2.125 C 4.707031 -1.707031 5.28125 -1.5 6.0625 -1.5 C 6.632812 -1.5 7.222656 -1.660156 7.828125 -1.984375 C 8.429688 -2.316406 8.914062 -2.742188 9.28125 -3.265625 C 9.40625 -3.316406 9.492188 -3.289062 9.546875 -3.1875 C 9.609375 -3.082031 9.625 -2.972656 9.59375 -2.859375 C 8.988281 -2.066406 8.226562 -1.390625 7.3125 -0.828125 C 6.394531 -0.273438 5.40625 0 4.34375 0 C 3.289062 0 2.53125 -0.257812 2.0625 -0.78125 C 1.59375 -1.3125 1.359375 -2.0625 1.359375 -3.03125 C 1.359375 -3.96875 1.550781 -4.941406 1.9375 -5.953125 C 2.332031 -6.960938 2.835938 -7.890625 3.453125 -8.734375 C 4.078125 -9.578125 4.789062 -10.265625 5.59375 -10.796875 C 6.394531 -11.328125 7.203125 -11.59375 8.015625 -11.59375 C 8.828125 -11.59375 9.484375 -11.359375 9.984375 -10.890625 C 10.484375 -10.421875 10.734375 -9.898438 10.734375 -9.328125 Z M 6.796875 -10.421875 C 6.097656 -10.421875 5.5 -10.09375 5 -9.4375 C 4.5 -8.789062 4.160156 -7.789062 3.984375 -6.4375 C 5.429688 -6.582031 6.5 -6.859375 7.1875 -7.265625 C 7.882812 -7.671875 8.234375 -8.175781 8.234375 -8.78125 C 8.234375 -9.238281 8.097656 -9.625 7.828125 -9.9375 C 7.554688 -10.257812 7.210938 -10.421875 6.796875 -10.421875 Z M 6.796875 -10.421875 "/></g></g></g><g fill="#543314" fill-opacity="1"><g transform="translate(271.391571, 252.094741)"><g><path d="M 2.859375 -3.03125 C 3.546875 -2.789062 4.257812 -2.585938 5 -2.421875 C 5.738281 -2.253906 6.472656 -2.171875 7.203125 -2.171875 C 7.953125 -2.171875 8.546875 -2.351562 8.984375 -2.71875 C 9.421875 -3.082031 9.757812 -3.582031 10 -4.21875 C 10.09375 -4.300781 10.191406 -4.3125 10.296875 -4.25 C 10.398438 -4.195312 10.441406 -4.109375 10.421875 -3.984375 C 9.421875 -1.328125 7.953125 0 6.015625 0 C 5.390625 0 4.75 -0.0703125 4.09375 -0.21875 C 3.445312 -0.375 2.789062 -0.570312 2.125 -0.8125 C 1.738281 -0.9375 1.394531 -0.941406 1.09375 -0.828125 C 0.789062 -0.722656 0.394531 -0.445312 -0.09375 0 C -0.238281 0 -0.347656 -0.0703125 -0.421875 -0.21875 C -0.503906 -0.375 -0.515625 -0.523438 -0.453125 -0.671875 C 0.210938 -1.335938 0.921875 -2.039062 1.671875 -2.78125 C 2.429688 -3.519531 3.1875 -4.25 3.9375 -4.96875 C 4.695312 -5.695312 5.4375 -6.410156 6.15625 -7.109375 C 6.882812 -7.804688 7.550781 -8.441406 8.15625 -9.015625 C 7.457031 -9.160156 6.675781 -9.285156 5.8125 -9.390625 C 4.957031 -9.492188 4.242188 -9.546875 3.671875 -9.546875 C 2.796875 -9.546875 2.191406 -9.066406 1.859375 -8.109375 C 1.796875 -8.015625 1.703125 -8 1.578125 -8.0625 C 1.460938 -8.125 1.40625 -8.195312 1.40625 -8.28125 C 1.800781 -9.375 2.253906 -10.195312 2.765625 -10.75 C 3.273438 -11.3125 3.984375 -11.59375 4.890625 -11.59375 C 5.585938 -11.59375 6.332031 -11.515625 7.125 -11.359375 C 7.925781 -11.210938 8.539062 -11.09375 8.96875 -11 C 9.300781 -10.914062 9.59375 -10.914062 9.84375 -11 C 10.101562 -11.09375 10.351562 -11.242188 10.59375 -11.453125 C 10.6875 -11.546875 10.820312 -11.59375 11 -11.59375 C 11.363281 -11.59375 11.515625 -11.457031 11.453125 -11.1875 C 9.796875 -9.644531 8.265625 -8.21875 6.859375 -6.90625 C 5.453125 -5.59375 4.117188 -4.300781 2.859375 -3.03125 Z M 2.859375 -3.03125 "/></g></g></g><g fill="#543314" fill-opacity="1"><g transform="translate(282.303618, 252.094741)"><g><path d="M 10.734375 -9.328125 C 10.734375 -7.609375 8.453125 -6.429688 3.890625 -5.796875 C 3.859375 -5.492188 3.832031 -5.191406 3.8125 -4.890625 C 3.800781 -4.585938 3.796875 -4.269531 3.796875 -3.9375 C 3.796875 -3.15625 3.976562 -2.550781 4.34375 -2.125 C 4.707031 -1.707031 5.28125 -1.5 6.0625 -1.5 C 6.632812 -1.5 7.222656 -1.660156 7.828125 -1.984375 C 8.429688 -2.316406 8.914062 -2.742188 9.28125 -3.265625 C 9.40625 -3.316406 9.492188 -3.289062 9.546875 -3.1875 C 9.609375 -3.082031 9.625 -2.972656 9.59375 -2.859375 C 8.988281 -2.066406 8.226562 -1.390625 7.3125 -0.828125 C 6.394531 -0.273438 5.40625 0 4.34375 0 C 3.289062 0 2.53125 -0.257812 2.0625 -0.78125 C 1.59375 -1.3125 1.359375 -2.0625 1.359375 -3.03125 C 1.359375 -3.96875 1.550781 -4.941406 1.9375 -5.953125 C 2.332031 -6.960938 2.835938 -7.890625 3.453125 -8.734375 C 4.078125 -9.578125 4.789062 -10.265625 5.59375 -10.796875 C 6.394531 -11.328125 7.203125 -11.59375 8.015625 -11.59375 C 8.828125 -11.59375 9.484375 -11.359375 9.984375 -10.890625 C 10.484375 -10.421875 10.734375 -9.898438 10.734375 -9.328125 Z M 6.796875 -10.421875 C 6.097656 -10.421875 5.5 -10.09375 5 -9.4375 C 4.5 -8.789062 4.160156 -7.789062 3.984375 -6.4375 C 5.429688 -6.582031 6.5 -6.859375 7.1875 -7.265625 C 7.882812 -7.671875 8.234375 -8.175781 8.234375 -8.78125 C 8.234375 -9.238281 8.097656 -9.625 7.828125 -9.9375 C 7.554688 -10.257812 7.210938 -10.421875 6.796875 -10.421875 Z M 6.796875 -10.421875 "/></g></g></g></svg>